<?xml version="1.0" standalone="no"?>
<!DOCTYPE svg PUBLIC "-//W3C//DTD SVG 20010904//EN"
 "http://www.w3.org/TR/2001/REC-SVG-20010904/DTD/svg10.dtd">
<svg version="1.0" xmlns="http://www.w3.org/2000/svg"
 width="3000.000000pt" height="3000.000000pt" viewBox="0 0 3000.000000 3000.000000"
 preserveAspectRatio="xMidYMid meet">

<g transform="translate(0.000000,3000.000000) scale(0.100000,-0.100000)"
fill="#000000" stroke="none">
<path d="M13720 20683 c-8 -1 -125 -5 -260 -8 -261 -6 -314 -8 -595 -26 -227
-14 -258 -16 -325 -23 -30 -3 -84 -8 -120 -10 -57 -4 -198 -18 -315 -31 -22
-2 -98 -12 -170 -20 -71 -9 -157 -18 -190 -21 -33 -3 -82 -9 -110 -14 -27 -6
-88 -14 -135 -20 -123 -15 -477 -70 -640 -99 -30 -6 -80 -13 -110 -17 -30 -3
-66 -9 -80 -14 -14 -4 -59 -13 -100 -20 -41 -6 -109 -20 -151 -31 -41 -10 -86
-19 -98 -19 -12 0 -59 -9 -104 -19 -45 -11 -113 -25 -152 -32 -38 -6 -88 -17
-110 -25 -22 -7 -58 -16 -80 -19 -22 -4 -104 -22 -182 -41 -78 -19 -152 -34
-165 -34 -13 0 -28 -4 -33 -9 -6 -5 -53 -19 -105 -31 -52 -11 -124 -29 -160
-40 -36 -10 -83 -23 -105 -28 -22 -6 -65 -18 -95 -27 -59 -18 -182 -51 -240
-65 -19 -4 -55 -15 -80 -23 -25 -8 -74 -22 -110 -32 -36 -9 -87 -26 -115 -36
-27 -10 -75 -25 -105 -33 -30 -8 -75 -21 -100 -31 -43 -15 -135 -45 -210 -66
-19 -6 -53 -19 -75 -29 -22 -10 -60 -23 -85 -30 -47 -13 -52 -14 -142 -49 -32
-13 -97 -35 -145 -51 -48 -15 -113 -39 -143 -52 -30 -13 -89 -35 -130 -48 -41
-13 -86 -31 -100 -40 -14 -9 -45 -22 -70 -30 -25 -7 -49 -17 -54 -22 -6 -4
-16 -8 -24 -8 -8 0 -42 -13 -76 -29 -33 -16 -110 -48 -171 -71 -60 -23 -120
-48 -133 -56 -12 -8 -64 -31 -115 -50 -51 -19 -109 -46 -129 -59 -21 -14 -44
-25 -51 -25 -7 0 -17 -4 -23 -8 -5 -5 -25 -15 -44 -22 -44 -17 -377 -175 -410
-196 -14 -8 -79 -42 -145 -75 -189 -95 -369 -192 -402 -216 -17 -13 -34 -23
-38 -23 -10 0 -185 -99 -210 -119 -20 -16 -27 -20 -114 -69 -95 -53 -147 -85
-166 -102 -22 -19 -153 -100 -164 -100 -3 -1 -33 -21 -66 -45 -61 -45 -222
-156 -240 -165 -33 -17 -95 -62 -107 -78 -7 -10 -65 -53 -128 -96 -63 -43
-137 -99 -165 -125 -27 -26 -77 -67 -110 -91 -74 -55 -125 -97 -190 -159 -27
-26 -84 -76 -125 -112 -113 -96 -457 -440 -498 -497 -21 -28 -72 -90 -116
-139 -91 -102 -226 -268 -226 -278 0 -4 -22 -39 -48 -79 -27 -39 -71 -105 -99
-146 -46 -69 -113 -178 -166 -269 -63 -111 -192 -397 -216 -481 -7 -25 -17
-54 -21 -65 -4 -11 -13 -40 -20 -65 -7 -25 -16 -54 -20 -65 -20 -52 -60 -258
-78 -405 -16 -131 -4 -535 19 -637 20 -93 31 -139 39 -163 4 -14 17 -59 30
-100 12 -41 26 -91 32 -110 5 -19 34 -86 64 -149 30 -62 54 -119 54 -125 0 -7
28 -57 61 -111 34 -55 75 -122 91 -148 67 -112 264 -347 417 -496 97 -95 276
-248 364 -311 27 -19 60 -45 75 -57 36 -28 301 -203 308 -203 3 0 25 -13 49
-30 24 -16 46 -30 48 -30 2 0 37 -19 78 -41 77 -43 324 -167 419 -212 102 -47
171 -77 176 -77 2 0 21 -7 42 -17 128 -57 463 -176 707 -251 216 -67 329 -99
450 -127 61 -14 126 -30 145 -35 82 -21 404 -90 525 -112 28 -5 73 -13 100
-18 106 -19 327 -54 405 -64 25 -4 131 -17 235 -30 279 -36 546 -62 720 -71
61 -3 164 -10 230 -15 290 -23 1019 -33 1350 -20 116 5 275 11 355 14 272 11
724 42 900 61 25 3 74 7 110 11 36 3 106 9 155 14 50 5 94 10 100 10 6 0 6 3
0 9 -6 5 -167 12 -360 15 -192 4 -372 9 -400 11 -27 3 -135 10 -240 16 -104 5
-212 12 -240 14 -27 2 -84 7 -125 11 -41 3 -97 8 -125 10 -27 1 -90 8 -140 13
-569 66 -707 85 -1020 141 -55 10 -134 23 -175 30 -41 6 -85 16 -98 21 -13 5
-35 9 -49 9 -15 0 -40 4 -57 10 -17 5 -69 17 -116 26 -47 9 -101 20 -120 24
-19 4 -75 17 -125 28 -49 11 -117 27 -150 36 -33 8 -116 29 -185 46 -136 35
-137 35 -290 78 -196 55 -471 142 -545 171 -11 5 -38 14 -60 20 -43 13 -167
57 -200 71 -11 4 -58 23 -105 40 -47 18 -98 38 -115 45 -16 8 -55 23 -85 35
-30 12 -78 32 -108 46 -29 13 -55 24 -57 24 -2 0 -47 20 -100 45 -52 25 -120
56 -150 70 -30 13 -55 30 -55 37 0 7 26 31 58 53 31 22 74 55 96 74 42 39 165
206 191 262 17 35 20 36 119 59 95 21 168 40 226 56 52 15 194 110 268 178 36
33 160 202 185 252 12 24 71 254 93 362 4 22 7 22 148 22 l144 0 7 -32 c3 -18
15 -71 26 -118 11 -47 25 -105 31 -130 17 -76 29 -102 89 -190 83 -123 121
-164 218 -235 110 -82 163 -108 271 -134 237 -56 194 -52 625 -49 393 4 402 4
495 30 52 14 111 28 130 32 l35 6 24 -103 c31 -131 63 -198 160 -328 79 -107
144 -166 278 -257 84 -57 127 -74 268 -106 66 -15 136 -33 155 -39 69 -21 205
-12 350 22 74 18 165 42 203 53 96 29 277 154 365 250 52 58 152 199 158 225
l6 23 284 0 c294 0 302 1 519 52 143 34 180 50 271 114 34 24 65 44 69 44 3 0
39 -15 78 -34 71 -35 116 -48 337 -103 l115 -28 1409 -5 1410 -5 42 -70 c85
-138 145 -206 259 -293 128 -96 202 -135 311 -160 44 -11 79 -24 79 -29 0 -10
-566 -614 -968 -1035 -255 -266 -260 -286 -12 -48 66 64 293 278 505 476 211
197 438 409 504 471 112 105 121 111 150 105 70 -16 182 -6 333 31 192 46 218
57 332 134 51 34 96 63 99 63 3 0 247 -242 542 -538 l538 -537 6 -135 c9 -193
25 -747 32 -1085 2 -159 8 -319 11 -355 l7 -65 7 60 c4 33 10 211 14 395 4
184 9 337 10 340 2 3 6 140 10 305 4 165 10 327 14 360 l7 60 389 -389 c401
-399 506 -490 622 -536 85 -33 309 -80 383 -80 71 0 322 54 397 85 50 21 223
146 260 188 51 58 158 220 170 257 42 123 77 300 76 380 0 86 -49 315 -87 403
-44 106 -150 224 -684 759 -346 347 -531 539 -522 542 8 2 31 7 50 10 52 9
126 47 205 105 104 76 124 97 199 199 104 143 107 151 172 435 19 81 29 94 40
51 20 -79 110 -227 232 -381 101 -128 327 -297 480 -358 36 -14 150 -46 254
-71 l188 -44 1632 0 c1796 0 1635 -5 1913 64 155 39 287 98 394 175 163 118
220 171 305 285 163 217 192 277 256 548 67 279 65 323 -30 703 -39 153 -68
212 -185 378 -100 140 -184 225 -322 320 -124 86 -203 128 -294 155 -99 31
-316 80 -402 92 -52 6 -586 10 -1564 10 l-1485 0 7 23 c3 12 12 46 18 76 l12
53 85 35 c47 19 132 50 190 70 58 19 121 43 140 53 19 10 78 32 130 50 52 18
100 36 106 41 6 5 42 19 80 32 38 14 92 32 119 42 28 9 55 21 60 25 6 5 64 27
129 49 66 23 124 45 130 50 6 5 27 14 46 19 55 16 150 52 205 76 28 13 81 33
119 45 38 12 89 31 115 43 25 11 55 24 66 29 11 5 56 20 100 35 44 14 93 33
109 41 30 16 184 71 224 80 12 3 22 8 22 12 0 8 -40 24 -100 41 -25 7 -54 16
-65 20 -11 4 -38 13 -60 19 -125 34 -406 118 -440 131 -11 4 -40 13 -65 20
-25 6 -53 16 -62 21 -10 5 -27 9 -38 9 -11 0 -28 4 -38 9 -9 5 -51 19 -92 31
-41 12 -84 26 -95 30 -11 4 -40 13 -65 20 -25 7 -54 16 -66 20 -11 5 -122 38
-245 75 -372 111 -351 101 -337 152 5 21 14 56 20 78 6 22 15 54 19 70 5 17
23 89 40 160 17 72 44 184 61 250 16 66 33 136 38 155 21 89 43 173 71 275 5
17 20 80 34 140 15 61 31 126 36 145 6 19 15 51 20 70 21 74 30 113 25 117 -6
6 -296 -246 -296 -256 0 -5 -60 -59 -132 -121 -73 -62 -148 -130 -166 -151
-18 -21 -91 -88 -162 -149 -71 -61 -138 -122 -148 -134 -32 -41 -201 -186
-217 -186 -12 0 -15 18 -15 96 0 53 -4 113 -9 133 -5 20 -15 61 -21 91 -7 30
-18 73 -25 96 -7 22 -25 84 -39 137 -15 54 -51 150 -81 214 -30 63 -55 121
-55 127 0 6 -9 22 -20 36 -11 14 -20 28 -20 33 0 4 -23 42 -51 84 -27 42 -57
90 -66 107 -17 33 -113 157 -208 270 -112 133 -289 301 -471 448 -77 63 -234
179 -259 193 -11 6 -40 24 -64 40 -24 17 -51 35 -60 40 -9 6 -35 22 -58 38
-23 15 -45 27 -49 27 -4 0 -21 10 -38 23 -44 34 -490 267 -510 267 -2 0 -39
16 -83 36 -104 48 -218 95 -348 144 -11 4 -31 12 -45 18 -14 5 -41 15 -60 22
-19 7 -44 16 -55 20 -11 5 -49 18 -85 30 -36 12 -74 25 -85 29 -27 11 -119 39
-335 101 -41 12 -86 26 -100 30 -26 8 -81 23 -152 41 -24 6 -57 15 -74 20 -17
5 -40 9 -52 9 -11 0 -23 4 -26 9 -3 4 -25 11 -48 14 -24 4 -61 11 -83 16 -64
16 -226 52 -277 62 -107 20 -146 28 -203 38 -33 5 -87 15 -120 21 -33 6 -87
15 -120 20 -33 4 -89 13 -125 18 -58 10 -156 24 -260 37 -19 3 -62 7 -95 10
-33 3 -71 8 -85 11 -36 8 -182 24 -275 30 -44 2 -114 9 -155 14 -41 5 -120 12
-174 15 -54 3 -102 7 -105 10 -4 2 -65 5 -136 6 -72 1 -168 6 -214 11 -73 7
-950 17 -991 11z m1380 -989 c268 -13 421 -24 675 -50 77 -8 183 -19 235 -24
52 -5 122 -14 155 -20 33 -6 94 -15 135 -20 115 -15 205 -29 373 -59 114 -21
299 -60 432 -91 50 -11 128 -29 175 -40 79 -18 343 -90 400 -109 14 -5 72 -23
130 -41 58 -18 114 -36 125 -40 50 -20 243 -90 248 -90 4 0 30 -11 59 -24 48
-22 81 -35 203 -85 71 -29 439 -217 497 -254 31 -21 60 -37 63 -37 10 0 273
-179 341 -232 152 -119 356 -314 445 -425 102 -126 189 -255 189 -278 0 -7 4
-16 9 -19 5 -3 28 -45 50 -93 23 -49 46 -95 51 -104 5 -9 12 -34 15 -55 4 -22
18 -81 32 -132 13 -51 23 -99 21 -106 -2 -11 -18 -9 -73 11 -38 13 -104 33
-145 44 -41 11 -100 28 -130 38 -30 10 -102 33 -160 51 -58 18 -130 41 -160
50 -30 9 -89 27 -130 40 -41 12 -84 26 -95 31 -11 4 -81 27 -155 49 -74 23
-177 55 -228 72 -51 17 -95 28 -98 25 -8 -8 38 -131 84 -223 21 -44 47 -101
57 -129 17 -47 66 -157 121 -269 13 -28 24 -56 24 -62 0 -7 27 -71 61 -141 33
-70 67 -147 75 -171 8 -23 39 -93 69 -155 29 -61 57 -124 60 -138 4 -15 33
-80 65 -145 l59 -119 -32 -30 c-18 -16 -70 -64 -117 -105 -46 -41 -102 -94
-124 -118 -23 -24 -97 -94 -165 -155 -69 -62 -134 -123 -145 -136 -24 -27 -55
-57 -207 -195 l-107 -96 -126 0 -126 0 -19 38 c-10 20 -53 84 -94 141 l-75
103 -6 147 c-4 80 -11 306 -16 501 -6 195 -12 423 -15 505 -18 553 -34 1119
-41 1435 -4 168 -10 316 -14 330 -7 25 -12 -87 -30 -685 -6 -170 -15 -447 -20
-615 -6 -168 -15 -447 -20 -620 -24 -742 -28 -842 -33 -846 -2 -3 -33 11 -68
30 -35 18 -93 41 -129 49 -36 9 -114 28 -175 43 -144 35 -255 36 -385 5 -189
-46 -244 -62 -294 -87 -52 -26 -169 -107 -242 -169 -71 -59 -243 -312 -244
-357 0 -26 -18 -31 -63 -20 -108 28 -217 52 -271 62 -92 16 -696 13 -781 -4
-106 -21 -213 -46 -283 -67 -41 -13 -68 -16 -80 -11 -9 5 -55 19 -102 30 -47
11 -114 29 -150 39 -60 16 -141 18 -1070 21 -1038 3 -1080 2 -1247 -38 -339
-81 -377 -97 -563 -234 -135 -99 -200 -164 -299 -301 -101 -138 -121 -172
-161 -275 l-29 -75 -300 -3 c-166 -1 -301 1 -301 5 0 4 427 435 948 958 1125
1126 1078 1072 1144 1342 47 194 47 265 3 453 -41 176 -57 212 -150 339 -65
89 -113 132 -241 219 -73 49 -107 62 -234 91 -52 12 -115 27 -140 33 -59 16
-152 15 -220 -2 -300 -73 -294 -71 -439 -178 -46 -34 -518 -498 -1213 -1193
-626 -627 -1145 -1139 -1152 -1139 -7 0 -32 10 -56 21 -24 12 -120 40 -212 63
l-169 41 -10 40 c-29 106 -92 212 -231 392 -64 81 -101 117 -186 181 -207 154
-287 194 -467 236 -38 10 -105 26 -148 36 -43 11 -86 20 -97 20 -11 0 -20 3
-20 7 0 3 28 36 63 72 87 91 194 248 217 318 32 100 80 321 80 370 0 25 -4 62
-10 82 -5 20 -23 93 -40 164 -17 70 -36 140 -42 155 -23 54 -137 208 -192 260
-31 29 -56 57 -56 62 0 9 67 51 180 113 30 17 80 47 110 67 30 20 93 56 140
80 47 23 99 53 115 65 17 12 81 47 144 79 63 31 122 62 130 69 17 14 60 35
186 92 44 20 87 43 95 50 8 7 38 22 65 33 28 11 107 47 175 80 69 33 155 72
192 85 36 14 77 32 90 41 13 8 70 33 128 55 58 22 123 49 145 59 22 11 76 32
119 47 44 14 91 33 105 40 14 8 74 30 132 49 58 19 121 42 140 50 19 8 68 24
109 36 41 12 103 33 137 46 34 13 67 24 75 24 7 0 72 18 143 41 72 22 148 45
170 50 22 6 60 17 85 26 45 15 59 19 182 47 37 8 75 19 85 24 10 5 47 15 83
22 36 7 94 20 130 31 36 10 103 25 150 34 47 9 96 20 110 26 14 5 41 11 60 14
49 7 82 13 180 35 80 17 242 47 390 71 36 6 75 15 88 20 13 5 38 9 57 9 19 0
56 4 82 9 107 21 171 31 228 35 33 3 87 10 120 16 33 6 89 13 125 16 36 3 87
9 113 15 26 5 69 9 94 9 26 0 72 4 102 10 31 5 112 14 181 20 69 5 148 12 175
15 62 5 379 23 620 34 267 12 912 10 1215 -5z m-8099 -2286 c122 -56 191 -163
197 -307 4 -87 -6 -136 -42 -201 -27 -49 -1772 -1797 -1818 -1821 -21 -10 -51
-19 -69 -19 -102 0 -155 -103 -82 -160 25 -20 43 -20 840 -20 l814 0 25 25
c20 20 25 33 22 67 -2 35 -9 46 -37 65 -30 20 -46 23 -144 23 -105 0 -113 2
-183 35 -83 40 -133 91 -172 175 -21 46 -25 70 -25 145 -1 111 27 180 100 252
109 108 153 116 620 111 380 -5 398 -7 533 -60 215 -84 388 -269 465 -493 26
-78 46 -204 43 -275 l-3 -65 215 -6 c217 -6 241 -10 362 -55 346 -130 567
-510 507 -873 -53 -320 -274 -568 -590 -662 -69 -21 -98 -22 -450 -26 -417 -5
-460 -1 -543 56 -94 65 -148 147 -163 249 -17 112 14 213 92 300 74 82 185
122 344 122 84 1 105 11 122 58 13 38 -10 88 -47 103 -16 6 -549 8 -1446 7
l-1420 -3 -25 -29 c-20 -23 -24 -37 -19 -64 11 -73 5 -72 331 -72 168 0 316
-5 351 -11 122 -23 221 -96 275 -206 20 -41 24 -63 24 -148 0 -89 -3 -106 -28
-156 -34 -70 -109 -142 -183 -176 -47 -21 -76 -26 -197 -32 -122 -6 -150 -11
-197 -33 -93 -43 -155 -117 -190 -228 -28 -88 -60 -139 -123 -196 -147 -135
-378 -172 -557 -91 -195 88 -315 307 -281 515 13 84 48 157 120 252 81 107
104 171 104 285 -1 78 -5 103 -36 186 -20 53 -52 141 -72 195 -20 55 -40 108
-45 119 -4 11 -17 46 -29 78 -12 31 -30 81 -40 110 -40 108 -45 134 -45 242 0
123 12 172 72 290 33 65 117 151 1196 1232 639 638 1177 1169 1196 1179 104
52 233 57 331 12z m5061 -178 c76 -35 138 -97 172 -170 26 -58 30 -76 30 -160
0 -170 80 -78 -1053 -1215 -549 -550 -1010 -1017 -1025 -1038 -61 -83 -96
-196 -96 -307 0 -265 187 -482 454 -530 35 -6 226 -10 457 -10 272 0 407 -4
426 -11 120 -48 197 -120 232 -214 28 -75 28 -185 0 -259 -23 -64 -93 -146
-154 -181 -89 -53 -108 -55 -547 -55 -372 0 -412 -2 -456 -18 -114 -44 -183
-116 -221 -230 -67 -205 -217 -321 -436 -338 -238 -18 -442 115 -514 336 -42
126 -19 297 54 399 14 20 48 68 75 106 64 91 85 165 78 277 -3 46 -11 94 -16
108 -6 14 -34 88 -62 165 -47 127 -74 200 -125 335 -46 120 -58 171 -63 258
-6 119 9 195 60 302 l40 85 1157 1158 c661 663 1175 1170 1200 1185 25 14 65
32 90 39 66 19 185 10 243 -17z m5479 -1943 c88 -33 134 -64 192 -126 43 -46
97 -142 97 -172 0 -6 12 -34 26 -63 28 -56 81 -116 130 -147 80 -49 71 -49
974 -49 702 0 853 -3 892 -14 132 -41 221 -135 255 -270 14 -57 14 -77 4 -133
-26 -143 -103 -231 -254 -292 -20 -8 -327 -11 -1093 -11 l-1066 0 -29 -29
c-36 -37 -38 -79 -5 -118 l24 -28 559 -2 c307 -1 581 -4 609 -7 116 -10 241
-109 284 -223 27 -72 29 -190 4 -254 -38 -98 -103 -165 -204 -212 -44 -21 -61
-22 -583 -27 l-539 -5 -24 -28 c-31 -36 -30 -68 1 -105 19 -23 35 -30 74 -35
27 -3 69 -16 93 -28 49 -25 1760 -1731 1801 -1795 62 -100 75 -254 29 -356
-29 -66 -101 -139 -169 -173 -52 -26 -68 -29 -153 -29 -170 0 -63 -93 -1338
1178 -618 617 -1145 1148 -1171 1181 -89 111 -141 253 -140 385 0 92 15 149
99 375 28 77 60 163 70 190 10 28 30 82 45 120 55 142 57 153 53 259 -4 118
-27 179 -103 273 -105 129 -144 270 -114 415 31 146 137 281 271 343 90 41
108 44 233 40 77 -2 115 -9 166 -28z m-2917 -572 c107 -33 187 -102 235 -204
22 -48 26 -69 25 -146 0 -78 -4 -98 -28 -146 -45 -91 -117 -156 -208 -190 -51
-18 -85 -19 -836 -19 -687 0 -787 -2 -813 -15 -53 -28 -62 -101 -17 -141 19
-18 66 -19 1242 -19 671 0 1233 3 1248 8 36 10 62 58 53 98 -11 51 -54 69
-162 69 -92 0 -109 4 -191 43 -53 26 -127 104 -153 163 -79 178 -6 389 163
472 85 41 101 42 487 42 341 0 383 -2 454 -20 116 -29 190 -72 283 -165 126
-126 179 -253 177 -430 0 -105 -3 -115 -82 -335 -25 -68 -31 -101 -31 -164 0
-121 24 -184 118 -308 26 -35 56 -81 66 -103 87 -183 49 -394 -98 -541 -96
-96 -212 -144 -348 -144 -195 0 -382 110 -453 266 -14 30 -25 60 -25 67 0 7
-11 35 -24 62 -29 62 -94 128 -161 163 l-50 27 -1530 5 c-1095 4 -1539 8
-1560 16 -16 7 -50 17 -75 25 -96 27 -219 99 -301 177 -154 145 -231 296 -259
508 -13 103 7 251 51 364 32 84 103 199 166 266 101 111 266 206 413 239 41 9
80 18 85 20 6 2 478 4 1050 4 894 1 1047 -1 1089 -14z m9605 0 c264 -55 459
-205 575 -440 63 -128 80 -204 80 -355 1 -145 -14 -213 -74 -336 -103 -214
-284 -365 -525 -441 l-90 -28 -1655 0 -1655 0 -80 23 c-294 85 -498 292 -583
592 -20 72 -22 284 -3 365 8 33 31 98 52 144 115 250 332 420 609 476 52 10
387 13 1670 14 1411 1 1614 -1 1679 -14z"/>
<path d="M21425 13986 c-24 -20 -30 -31 -30 -66 0 -51 26 -76 88 -85 23 -3
520 -5 1104 -3 l1061 3 26 24 c44 41 33 111 -21 139 -16 9 -302 12 -1110 12
l-1088 0 -30 -24z"/>
<path d="M25815 17673 c-3 -10 -10 -40 -15 -68 -5 -27 -23 -115 -40 -195 -17
-80 -35 -165 -40 -190 -5 -25 -19 -88 -30 -140 -12 -52 -35 -162 -52 -245 -17
-82 -34 -166 -38 -185 -4 -19 -20 -93 -35 -165 -15 -71 -31 -146 -35 -165 -4
-19 -20 -93 -35 -165 -16 -77 -36 -142 -48 -159 -22 -32 -88 -65 -129 -66 -14
0 -48 -4 -75 -10 -26 -5 -82 -14 -123 -20 -41 -6 -100 -15 -130 -20 -65 -11
-118 -19 -430 -66 -129 -20 -262 -40 -295 -45 -33 -5 -94 -14 -135 -19 -41 -6
-129 -19 -195 -30 -220 -35 -319 -49 -445 -66 -69 -9 -140 -18 -157 -20 -60
-9 -28 -34 43 -34 17 0 118 -13 225 -30 296 -45 308 -47 559 -85 129 -19 262
-40 295 -45 33 -5 182 -28 330 -50 149 -22 295 -44 325 -50 30 -5 93 -14 140
-21 185 -24 206 -44 245 -234 15 -71 31 -146 35 -165 4 -19 20 -93 35 -165 15
-71 31 -146 35 -165 4 -19 21 -102 38 -185 17 -82 40 -193 52 -245 11 -52 25
-115 30 -140 5 -25 23 -110 40 -190 17 -80 36 -172 41 -205 6 -33 14 -64 20
-70 6 -6 9 -6 9 0 0 12 85 421 140 675 29 133 64 296 77 360 8 41 19 91 23
110 4 19 17 82 29 140 12 58 26 123 31 145 5 22 19 85 31 140 37 168 27 163
369 215 36 5 108 17 160 25 104 16 467 71 570 85 36 5 103 16 150 24 47 7 88
12 91 10 4 -2 19 -70 33 -151 15 -82 31 -164 36 -184 6 -20 10 -50 10 -67 0
-78 25 -82 35 -4 3 31 10 75 15 97 14 68 30 146 48 245 l18 94 34 8 c19 4 85
14 145 22 61 9 168 25 239 36 71 11 145 20 165 20 38 0 70 14 59 25 -4 4 -40
11 -80 15 -40 5 -136 18 -213 29 -77 12 -174 26 -215 32 -71 10 -105 23 -96
38 2 3 14 62 26 131 12 69 26 132 31 141 10 20 -1 18 379 83 113 19 286 49
385 66 99 18 214 36 255 41 41 6 77 12 79 15 10 9 -24 24 -54 24 -16 0 -68 7
-115 15 -146 25 -309 53 -465 80 -82 15 -213 37 -289 51 -171 29 -175 30 -180
57 -3 12 -9 45 -15 72 -6 28 -17 91 -26 140 -20 116 -62 346 -75 410 -5 28
-19 95 -30 150 -10 55 -22 124 -26 153 -7 59 -28 66 -31 11 -2 -19 -7 -56 -13
-84 -14 -69 -68 -362 -85 -460 -16 -94 -50 -278 -65 -352 -6 -28 -16 -56 -23
-61 -7 -6 -79 -22 -162 -36 -82 -14 -215 -37 -295 -52 -80 -14 -167 -29 -195
-33 -125 -20 -392 -64 -412 -67 -39 -7 -25 -22 25 -29 68 -9 235 -37 577 -95
165 -28 325 -56 355 -61 99 -17 113 -23 122 -55 19 -75 44 -225 38 -229 -7 -4
-83 6 -400 55 -74 11 -166 25 -205 31 -90 12 -173 25 -255 39 -82 14 -172 27
-255 39 -66 9 -121 36 -141 68 -6 10 -21 63 -33 118 -12 55 -26 118 -31 140
-5 22 -19 87 -31 145 -12 58 -25 121 -29 140 -4 19 -15 69 -23 110 -16 74 -62
292 -77 360 -4 19 -13 58 -18 85 -6 28 -25 115 -42 195 -17 80 -42 201 -56
270 -14 69 -27 126 -29 128 -1 2 -6 -5 -10 -15z"/>
<path d="M27046 15299 c-7 -37 -43 -236 -56 -314 -7 -38 -16 -83 -21 -99 -5
-16 -9 -41 -9 -56 0 -15 -6 -32 -12 -38 -7 -5 -69 -20 -138 -32 -69 -12 -147
-25 -175 -30 -27 -5 -98 -17 -157 -27 -60 -10 -108 -20 -108 -23 0 -6 90 -23
265 -51 180 -28 302 -52 313 -61 6 -6 12 -23 12 -38 0 -15 4 -40 9 -56 5 -16
14 -60 21 -99 12 -74 48 -275 56 -313 7 -36 21 -17 28 40 4 29 18 112 32 183
13 72 29 159 35 195 17 103 5 95 199 126 52 9 115 19 140 24 25 4 93 15 153
25 59 10 107 21 107 25 0 3 -48 13 -107 23 -60 10 -130 22 -158 27 -27 5 -106
18 -175 30 -69 12 -130 26 -136 31 -6 5 -14 30 -18 57 -3 26 -17 106 -31 177
-14 72 -30 164 -36 205 -12 81 -25 108 -33 69z"/>
<path d="M11201 12068 c-72 -27 -132 -89 -160 -162 -18 -47 -21 -79 -21 -190
0 -73 5 -148 11 -167 25 -81 77 -146 144 -182 l40 -22 820 0 820 0 49 25 c27
14 64 42 82 64 54 63 64 109 64 285 0 142 -2 160 -24 206 -30 66 -89 121 -154
145 -51 19 -79 20 -835 19 -767 0 -783 0 -836 -21z"/>
<path d="M13185 12067 c-22 -12 -50 -38 -62 -56 -22 -33 -23 -40 -23 -296 0
-256 1 -263 23 -296 12 -18 38 -44 57 -57 34 -23 36 -23 311 -20 313 3 310 3
357 84 22 38 22 45 20 295 -3 254 -3 256 -28 292 -13 20 -41 45 -61 56 -34 20
-53 21 -295 21 -250 0 -260 -1 -299 -23z"/>
<path d="M14077 12072 c-43 -47 -47 -80 -47 -354 0 -145 4 -278 10 -297 5 -19
19 -45 32 -58 20 -22 28 -23 158 -23 129 0 138 1 157 23 38 42 43 80 43 351
-1 379 1 376 -200 376 -119 0 -139 -2 -153 -18z"/>
</g>
</svg>
